<?xml version="1.0" encoding="UTF-8"?>
<!DOCTYPE svg PUBLIC "-//W3C//DTD SVG 1.1//EN" "http://www.w3.org/Graphics/SVG/1.1/DTD/svg11.dtd">
<!-- Creator: CorelDRAW 2019 -->
<svg xmlns="http://www.w3.org/2000/svg" xml:space="preserve" width="90mm" height="70mm" version="1.1" style="shape-rendering:geometricPrecision; text-rendering:geometricPrecision; image-rendering:optimizeQuality; fill-rule:evenodd; clip-rule:evenodd"
viewBox="0 0 9000 7000"
 xmlns:xlink="http://www.w3.org/1999/xlink">
 <defs>
  <style type="text/css">
   <![CDATA[
    .fil2 {fill:#DC4A13}
    .fil1 {fill:#E3774F}
    .fil0 {fill:#E6A187}
    .fil3 {fill:#EB4205}
   ]]>
  </style>
 </defs>
 <g id="Layer_x0020_1">
  <metadata id="CorelCorpID_0Corel-Layer"/>
  <path class="fil0" d="M224.76 6983.71c0,0 8008.08,-1852.08 8784.19,-4497.93 -14.74,1687.24 -31.22,4507.92 -31.22,4507.92l-8752.97 -9.99z"/>
  <path class="fil1" d="M224.76 6983.71c0,0 7999.35,-759.04 8775.46,-3404.89 -14.74,1687.24 -22.49,3414.88 -22.49,3414.88l-8752.97 -9.99z"/>
  <path class="fil2" d="M224.76 6983.71c0,0 7993.58,-53.4 8769.69,-2699.25 -14.74,1687.24 -16.72,2709.24 -16.72,2709.24l-8752.97 -9.99z"/>
  <path class="fil3" d="M224.76 6983.71c0,0 7988.99,722.34 8765.1,-1923.51 -14.74,1687.24 -12.13,1933.5 -12.13,1933.5l-8752.97 -9.99z"/>
 </g>
</svg>
